<svg preserveAspectRatio="none" width="100%" height="100%" overflow="visible" style="display: block;" viewBox="0 0 32 32" fill="none" xmlns="http://www.w3.org/2000/svg">
<g id="Frame 1618873835">
<rect width="32" height="32" rx="16" fill="var(--fill-0, #2F95EC)"/>
<path id="Vector" d="M15.4012 21.1407C15.4679 21.2376 15.5572 21.3168 15.6613 21.3716C15.7655 21.4263 15.8814 21.4549 15.999 21.4549C16.1167 21.4549 16.2326 21.4263 16.3367 21.3716C16.4408 21.3168 16.5301 21.2376 16.5968 21.1407L23.1423 11.6862C23.2181 11.5771 23.2625 11.4494 23.2707 11.3169C23.279 11.1843 23.2508 11.0521 23.1892 10.9345C23.1276 10.8168 23.0349 10.7183 22.9212 10.6497C22.8076 10.5811 22.6773 10.5449 22.5445 10.5451H9.45356C9.32108 10.5456 9.19126 10.5823 9.07805 10.6511C8.96485 10.7199 8.87254 10.8183 8.81106 10.9356C8.74959 11.053 8.72126 11.1849 8.72913 11.3171C8.737 11.4493 8.78078 11.5769 8.85574 11.6862L15.4012 21.1407Z" fill="var(--fill-0, white)"/>
</g>
</svg>
