<svg preserveAspectRatio="none" width="100%" height="100%" overflow="visible" style="display: block;" viewBox="0 0 24 24" fill="none" xmlns="http://www.w3.org/2000/svg">
<g id="mdi:email">
<rect width="24" height="24" rx="12" fill="var(--fill-0, #2F95EC)"/>
<path id="Vector" d="M18 9L12 12.75L6 9V7.5L12 11.25L18 7.5M18 6H6C5.1675 6 4.5 6.6675 4.5 7.5V16.5C4.5 16.8978 4.65804 17.2794 4.93934 17.5607C5.22064 17.842 5.60218 18 6 18H18C18.3978 18 18.7794 17.842 19.0607 17.5607C19.342 17.2794 19.5 16.8978 19.5 16.5V7.5C19.5 7.10218 19.342 6.72064 19.0607 6.43934C18.7794 6.15804 18.3978 6 18 6Z" fill="var(--fill-0, white)"/>
</g>
</svg>
