<svg preserveAspectRatio="none" width="100%" height="100%" overflow="visible" style="display: block;" viewBox="0 0 27 27" fill="none" xmlns="http://www.w3.org/2000/svg">
<g id="Frame" clip-path="url(#clip0_0_6)">
<path id="Vector" d="M10.2386 26.6556V17.6781H7.45534V13.5527H10.2386V11.7752C10.2386 7.17961 12.3176 5.04998 16.8288 5.04998C17.28 5.04998 17.9032 5.09723 18.4803 5.16586C18.9126 5.21034 19.3415 5.28363 19.764 5.38523V9.12586C19.5197 9.10308 19.2746 9.08957 19.0293 9.08536C18.7545 9.07823 18.4796 9.07485 18.2047 9.07523C17.4093 9.07523 16.7883 9.18323 16.3203 9.42286C16.0057 9.58071 15.7412 9.823 15.5565 10.1226C15.2662 10.5951 15.1357 11.242 15.1357 12.0936V13.5527H19.5446L19.1103 15.9186L18.7875 17.6781H15.1357V26.9537C21.8205 26.146 27 20.4546 27 13.5527C27 6.09736 20.9553 0.0527344 13.5 0.0527344C6.04459 0.0527344 -3.33786e-05 6.09736 -3.33786e-05 13.5527C-3.33786e-05 19.8842 4.35822 25.1965 10.2386 26.6556Z" fill="var(--fill-0, white)"/>
</g>
<defs>
<clipPath id="clip0_0_6">
<rect width="27" height="27" fill="white"/>
</clipPath>
</defs>
</svg>
