<svg preserveAspectRatio="none" width="100%" height="100%" overflow="visible" style="display: block;" viewBox="0 0 34 34" fill="none" xmlns="http://www.w3.org/2000/svg">
<g id="mdi:address-marker-outline">
<path id="Vector" d="M17 9.20833C17.9393 9.20833 18.8401 9.58147 19.5043 10.2457C20.1685 10.9099 20.5417 11.8107 20.5417 12.75C20.5417 13.2151 20.4501 13.6756 20.2721 14.1053C20.0941 14.535 19.8332 14.9255 19.5043 15.2543C19.1755 15.5832 18.785 15.8441 18.3553 16.0221C17.9256 16.2001 17.4651 16.2917 17 16.2917C16.0607 16.2917 15.1599 15.9185 14.4957 15.2543C13.8315 14.5901 13.4583 13.6893 13.4583 12.75C13.4583 11.8107 13.8315 10.9099 14.4957 10.2457C15.1599 9.58147 16.0607 9.20833 17 9.20833ZM17 2.83333C19.6301 2.83333 22.1524 3.87812 24.0121 5.73786C25.8719 7.59759 26.9167 10.1199 26.9167 12.75C26.9167 20.1875 17 31.1667 17 31.1667C17 31.1667 7.08333 20.1875 7.08333 12.75C7.08333 10.1199 8.12812 7.59759 9.98786 5.73786C11.8476 3.87812 14.3699 2.83333 17 2.83333ZM17 5.66667C15.1214 5.66667 13.3197 6.41294 11.9913 7.74133C10.6629 9.06971 9.91667 10.8714 9.91667 12.75C9.91667 14.1667 9.91667 17 17 26.5058C24.0833 17 24.0833 14.1667 24.0833 12.75C24.0833 10.8714 23.3371 9.06971 22.0087 7.74133C20.6803 6.41294 18.8786 5.66667 17 5.66667Z" fill="var(--fill-0, white)"/>
</g>
</svg>
