<svg preserveAspectRatio="none" width="100%" height="100%" overflow="visible" style="display: block;" viewBox="0 0 32 27" fill="none" xmlns="http://www.w3.org/2000/svg">
<g id="Frame 1618873861">
<path id="Vector" d="M7.90882 0.0945186C6.47242 0.162243 5.49154 0.391518 4.63395 0.728342C3.74656 1.07428 2.99427 1.53834 2.24581 2.2895C1.49746 3.04066 1.03644 3.7934 0.69309 4.68237C0.360766 5.54164 0.135541 6.52342 0.0720916 7.96061C0.00864176 9.39779 -0.0054207 9.85983 0.00166678 13.526C0.00864176 17.1919 0.0248417 17.6514 0.094479 19.0917C0.163104 20.5277 0.391478 21.5084 0.728415 22.3662C1.07491 23.2537 1.53841 24.0057 2.28991 24.7543C3.0413 25.503 3.79347 25.9629 4.68447 26.3068C5.54306 26.6387 6.52507 26.8649 7.96203 26.9278C9.39899 26.9908 9.86148 27.0055 13.5265 26.9984C17.1915 26.9914 17.653 26.9751 19.0927 26.9068C20.5327 26.8385 21.5081 26.6084 22.3663 26.2731C23.2538 25.9259 24.0063 25.4631 24.7544 24.7115C25.5025 23.9597 25.9632 23.2065 26.3063 22.317C26.639 21.4584 26.865 20.4765 26.9273 19.0406C26.9903 17.5996 27.0052 17.1396 26.9982 13.4741C26.9911 9.80853 26.9746 9.34897 26.9063 7.90931C26.838 6.46965 26.6093 5.49203 26.2726 4.63366C25.9256 3.74615 25.4626 2.99476 24.7115 2.24551C23.9604 1.49626 23.2064 1.03592 22.3174 0.693579C21.4582 0.361143 20.4768 0.134681 19.0399 0.0725812C17.6029 0.0104814 17.1404 -0.0056061 13.4741 0.00159388C9.8077 0.00856886 9.3487 0.0243188 7.90882 0.0945186ZM8.06654 24.4992C6.7503 24.4419 6.03559 24.2232 5.55926 24.0402C4.92859 23.7972 4.47927 23.5035 4.00463 23.0333C3.52988 22.5633 3.23839 22.1124 2.99213 21.4831C2.80718 21.0067 2.58443 20.2928 2.5229 18.9766C2.45596 17.554 2.4419 17.1269 2.43402 13.5226C2.42615 9.91844 2.43998 9.49173 2.50231 8.06861C2.55856 6.75349 2.77861 6.03799 2.96131 5.56189C3.20431 4.93043 3.49703 4.48189 3.96818 4.00759C4.43933 3.53318 4.88888 3.24102 5.51876 2.99476C5.99464 2.80902 6.70845 2.58819 8.02413 2.52552C9.44781 2.45802 9.87441 2.44452 13.4781 2.43665C17.0818 2.42877 17.5095 2.44227 18.9338 2.50505C20.2489 2.5622 20.9647 2.78011 21.4403 2.96405C22.0712 3.20705 22.5203 3.49887 22.9946 3.97092C23.469 4.44274 23.7614 4.89072 24.0076 5.52195C24.1936 5.99636 24.4145 6.70995 24.4766 8.02653C24.5444 9.45022 24.5598 9.87715 24.5662 13.4805C24.5727 17.0839 24.56 17.5118 24.4976 18.9345C24.4402 20.2507 24.2219 20.9657 24.0386 21.4426C23.7956 22.073 23.5027 22.5226 23.0312 22.9966C22.5599 23.4708 22.1109 23.7629 21.4807 24.0091C21.0055 24.1946 20.2908 24.416 18.9762 24.4787C17.5524 24.5456 17.1258 24.5597 13.5208 24.5676C9.9157 24.5755 9.49023 24.5608 8.06654 24.4992ZM19.072 6.2847C19.0726 6.60513 19.1681 6.91821 19.3466 7.18433C19.5251 7.45046 19.7785 7.65767 20.0747 7.77977C20.371 7.90187 20.6968 7.93337 21.011 7.87029C21.3251 7.8072 21.6135 7.65236 21.8397 7.42536C22.0659 7.19835 22.2196 6.90938 22.2815 6.59498C22.3434 6.28058 22.3107 5.95489 22.1875 5.65909C22.0643 5.36329 21.8561 5.11068 21.5893 4.9332C21.3225 4.75571 21.0091 4.66134 20.6887 4.66201C20.2591 4.6629 19.8475 4.83434 19.5444 5.13864C19.2412 5.44293 19.0713 5.85517 19.072 6.2847ZM6.56827 13.5135C6.57581 17.3421 9.68519 20.4386 13.5129 20.4314C17.3408 20.4241 20.4395 17.3151 20.4323 13.4865C20.425 9.65789 17.3149 6.56044 13.4866 6.56798C9.65819 6.57551 6.56107 9.68534 6.56827 13.5135ZM8.99995 13.5086C8.9982 12.6186 9.2604 11.7481 9.75339 11.0071C10.2464 10.2661 10.948 9.68796 11.7696 9.34574C12.5912 9.00352 13.4958 8.91261 14.3691 9.08451C15.2423 9.25641 16.045 9.6834 16.6756 10.3115C17.3062 10.9396 17.7363 11.7405 17.9117 12.6131C18.0871 13.4856 17.9998 14.3906 17.6608 15.2135C17.3219 16.0365 16.7465 16.7404 16.0075 17.2364C15.2684 17.7323 14.3989 17.998 13.5089 17.9997C12.918 18.001 12.3325 17.8858 11.7861 17.6608C11.2396 17.4357 10.7429 17.1052 10.3242 16.6882C9.90545 16.2711 9.57299 15.7757 9.34578 15.2301C9.11857 14.6846 9.00106 14.0996 8.99995 13.5086Z" fill="var(--fill-0, white)"/>
</g>
</svg>
