<svg preserveAspectRatio="none" width="100%" height="100%" overflow="visible" style="display: block;" viewBox="0 0 32 27" fill="none" xmlns="http://www.w3.org/2000/svg">
<g id="Frame 1618873859">
<path id="Vector" d="M28.0029 23.0084H24.0046V16.7433C24.0046 15.2493 23.9743 13.3267 21.9212 13.3267C19.8365 13.3267 19.5182 14.9523 19.5182 16.6331V23.0084H15.5199V10.125H19.3607V11.8811H19.4124C19.949 10.8686 21.254 9.79985 23.2036 9.79985C27.2548 9.79985 28.004 12.4661 28.004 15.9367L28.0029 23.0084ZM11.0042 8.3621C9.71719 8.3621 8.68332 7.32035 8.68332 6.03898C8.68332 4.75874 9.71831 3.71811 11.0042 3.71811C12.2867 3.71811 13.3262 4.75874 13.3262 6.03898C13.3262 7.32035 12.2856 8.3621 11.0042 8.3621ZM13.0089 23.0084H8.99944V10.125H13.0089V23.0084ZM30.0031 0H6.99245C5.89107 0 5.00008 0.870747 5.00008 1.94512V25.0548C5.00008 26.1303 5.89107 26.9999 6.99245 26.9999H29.9998C31.1 26.9999 32 26.1303 32 25.0548V1.94512C32 0.870747 31.1 0 29.9998 0H30.0031Z" fill="var(--fill-0, white)"/>
</g>
</svg>
