<svg preserveAspectRatio="none" width="100%" height="100%" overflow="visible" style="display: block;" viewBox="0 0 18 18" fill="none" xmlns="http://www.w3.org/2000/svg">
<g id="material-symbols:call-sharp">
<path id="Vector" d="M14.9625 15.75C13.4 15.75 11.8532 15.4125 10.3222 14.7375C8.79125 14.0625 7.4005 13.1 6.15 11.85C4.8995 10.6 3.937 9.2125 3.2625 7.6875C2.588 6.1625 2.2505 4.6125 2.25 3.0375V2.25H6.675L7.36875 6.01875L5.23125 8.175C5.50625 8.6625 5.8125 9.125 6.15 9.5625C6.4875 10 6.85 10.4062 7.2375 10.7812C7.6 11.1437 7.997 11.4907 8.4285 11.8222C8.86 12.1537 9.3255 12.463 9.825 12.75L12 10.575L15.75 11.3438V15.75H14.9625Z" fill="var(--fill-0, white)"/>
</g>
</svg>
