<svg preserveAspectRatio="none" width="100%" height="100%" overflow="visible" style="display: block;" viewBox="0 0 48 48" fill="none" xmlns="http://www.w3.org/2000/svg">
<g id="mdi:email">
<rect width="48" height="48" rx="24" fill="var(--fill-0, #2F95EC)"/>
<path id="Vector (Stroke)" d="M24.0545 25.8421C27.05 25.8445 30.9583 27.2785 33.528 31.0137L33.6496 31.1931L33.6501 31.1944C33.9925 31.7117 34.183 32.5095 33.7467 33.2669C33.4019 33.8663 32.7621 34.6605 32.0538 35.3242C31.6935 35.6618 31.2844 35.9951 30.8526 36.2609C30.4371 36.5167 29.908 36.768 29.3223 36.829H29.3202C27.8502 36.9801 24.1464 37 24.0554 37C23.9606 37 20.1516 36.98 18.6823 36.829L18.6784 36.8286C18.0932 36.7668 17.5644 36.5161 17.1481 36.26C16.7159 35.9942 16.3066 35.661 15.9461 35.3234C15.2368 34.6591 14.5969 33.8646 14.2514 33.2648L14.2497 33.2614C13.8166 32.5043 14.0112 31.7094 14.3472 31.1969L14.3511 31.191C16.9248 27.3116 21.024 25.8396 24.0545 25.8421ZM24.0523 28.4355C21.873 28.4337 18.8024 29.483 16.7736 32.3134C17.0121 32.6437 17.3691 33.0663 17.7788 33.4501C18.0537 33.7075 18.3218 33.9188 18.5589 34.0647C18.6759 34.1367 18.7731 34.1848 18.8488 34.2149C18.8859 34.2297 18.9145 34.2388 18.9347 34.2441C18.9507 34.2483 18.9597 34.2496 18.9623 34.25C19.5911 34.3143 20.8119 34.355 21.9426 34.3783C22.4976 34.3897 23.0139 34.3969 23.3987 34.4011C23.591 34.4032 23.7503 34.4045 23.8647 34.4053C23.9217 34.4057 23.9675 34.406 24.0006 34.4062C24.0171 34.4063 24.0305 34.4065 24.0403 34.4066H24.0705C24.08 34.4065 24.0931 34.4063 24.1093 34.4062C24.1416 34.406 24.1862 34.4057 24.2417 34.4053C24.3531 34.4045 24.508 34.4032 24.6952 34.4011C25.0697 34.3969 25.5725 34.3897 26.1138 34.3783C27.2169 34.355 28.4124 34.3145 29.0415 34.25L29.0678 34.2445C29.0861 34.2397 29.1141 34.231 29.1524 34.2158C29.2274 34.1859 29.3242 34.1379 29.441 34.0659C29.6776 33.9203 29.9454 33.7088 30.2202 33.4514C30.6304 33.067 30.9876 32.6439 31.2254 32.3142C29.1962 29.4756 26.2194 28.4372 24.0523 28.4355ZM27.0724 16.5469C27.0724 15.7636 26.7541 15.0122 26.188 14.4583C25.6218 13.9045 24.8538 13.5934 24.0532 13.5934C23.2527 13.5935 22.485 13.9046 21.9189 14.4583C21.3528 15.0122 21.0345 15.7636 21.0345 16.5469C21.0345 17.3302 21.3527 18.0816 21.9189 18.6355C22.485 19.1893 23.2526 19.5007 24.0532 19.5008C24.8539 19.5008 25.6218 19.1894 26.188 18.6355C26.7541 18.0816 27.0724 17.3302 27.0724 16.5469ZM29.7231 16.5469C29.7231 18.018 29.1258 19.4292 28.0625 20.4695C26.9993 21.5098 25.5569 22.0942 24.0532 22.0942C22.5496 22.0941 21.1075 21.5097 20.0443 20.4695C18.981 19.4292 18.3837 18.0181 18.3837 16.5469C18.3837 15.0758 18.9811 13.6649 20.0443 12.6247C21.1075 11.5845 22.5496 11 24.0532 11C25.5569 11 26.9993 11.5844 28.0625 12.6247C29.1257 13.6649 29.7231 15.0758 29.7231 16.5469Z" fill="var(--fill-0, white)"/>
</g>
</svg>
