<svg preserveAspectRatio="none" width="100%" height="100%" overflow="visible" style="display: block;" viewBox="0 0 56 56" fill="none" xmlns="http://www.w3.org/2000/svg">
<g id="Frame 1618873785">
<rect width="56" height="56" rx="28" fill="var(--fill-0, #2F95EC)"/>
<path id="Vector" d="M20.9995 27.0007V29.0007H22.5855C23.9995 28.0007 24.9715 26.5007 24.9715 24.6507C26.9735 22.4367 28.1765 19.8397 28.9205 17.7767C29.0255 17.4857 29.0255 17.1677 28.9205 16.8777C28.6725 16.1887 27.9125 15.8317 27.2235 16.0797C25.1735 16.8187 22.6145 17.9757 20.3825 20.0007C18.4995 20.0007 16.9995 21.0007 15.9995 22.4157V24.0017H17.9995L18.4875 24.4897L17.0095 25.9687L19.0325 27.9917L20.5115 26.5136L20.9995 27.0017V27.0007ZM22.4995 21.0007C23.3275 21.0007 23.9995 21.6727 23.9995 22.5007C23.9995 23.3287 23.3275 24.0007 22.4995 24.0007C21.6715 24.0007 20.9995 23.3297 20.9995 22.5007C20.9995 21.6717 21.6715 21.0007 22.4995 21.0007ZM28.2625 31.5677L24.1415 37.0007H39.9995V40.0007H19.9995V37.4957L30.9995 22.9957V16.0007H33.9995L37.9995 18.5007L33.9995 21.0007V22.9957L39.9995 30.9047V35.8687L36.3515 31.0597L34.8175 33.6017L33.0005 31.1017L30.5005 34.6017L28.2625 31.5677Z" fill="var(--fill-0, white)"/>
</g>
</svg>
