<svg preserveAspectRatio="none" width="100%" height="100%" overflow="visible" style="display: block;" viewBox="0 0 24 24" fill="none" xmlns="http://www.w3.org/2000/svg">
<path id="Vector" d="M5 11V13H6.586C8 12 8.972 10.5 8.972 8.65C10.974 6.436 12.177 3.839 12.921 1.776C13.026 1.485 13.026 1.167 12.921 0.877C12.673 0.188 11.913 -0.169 11.224 0.079C9.174 0.818 6.615 1.975 4.383 4C2.5 4 1 5 0 6.415V8.001H2L2.488 8.489L1.01 9.968L3.033 11.991L4.512 10.513L5 11.001V11ZM6.5 5C7.328 5 8 5.672 8 6.5C8 7.328 7.328 8 6.5 8C5.672 8 5 7.329 5 6.5C5 5.671 5.672 5 6.5 5ZM12.263 15.567L8.142 21H24V24H4V21.495L15 6.995V0H18L22 2.5L18 5V6.995L24 14.904V19.868L20.352 15.059L18.818 17.601L17.001 15.101L14.501 18.601L12.263 15.567Z" fill="var(--fill-0, white)"/>
</svg>
