<svg preserveAspectRatio="none" width="100%" height="100%" overflow="visible" style="display: block;" viewBox="0 0 14.5443 10.9098" fill="none" xmlns="http://www.w3.org/2000/svg">
<path id="Vector" d="M6.67335 10.5956C6.74007 10.6925 6.82935 10.7718 6.93349 10.8265C7.03763 10.8812 7.15352 10.9098 7.27117 10.9098C7.38882 10.9098 7.50471 10.8812 7.60885 10.8265C7.71299 10.7718 7.80227 10.6925 7.86899 10.5956L14.4144 1.14109C14.4902 1.03204 14.5346 0.904314 14.5429 0.771786C14.5512 0.639258 14.523 0.506999 14.4613 0.389377C14.3997 0.271756 14.307 0.173272 14.1934 0.104624C14.0797 0.0359768 13.9494 -0.00020825 13.8166 9.01566e-07H0.725717C0.59324 0.000548108 0.463418 0.0371984 0.350212 0.10601C0.237007 0.174822 0.144701 0.273192 0.083222 0.390541C0.0217427 0.507891 -0.00658412 0.639779 0.00128785 0.772023C0.00915982 0.904268 0.0529327 1.03186 0.127899 1.14109L6.67335 10.5956Z" fill="var(--fill-0, white)"/>
</svg>
