<svg preserveAspectRatio="none" width="100%" height="100%" overflow="visible" style="display: block;" viewBox="0 0 20.176 24" fill="none" xmlns="http://www.w3.org/2000/svg">
<path id="Vector" d="M2.799 5.265L1.087 2.378L3.667 0.848L5.379 3.735L2.799 5.265ZM20.176 11.903C20.042 12.587 17.127 18.789 10.089 19C3.761 18.817 0.792 13.978 0 12.1C0.138 11.409 3.046 5.214 10.089 5C16.384 5.187 19.431 10.102 20.176 11.903ZM16.826 11.983C15.967 10.74 13.668 8 10.089 8C6.585 8 4.257 10.724 3.348 12.021C4.206 13.288 6.468 16 10.089 16C13.589 16 15.915 13.282 16.826 11.983ZM10.089 9C8.432 9 7.089 10.343 7.089 12C7.089 13.657 8.432 15 10.089 15C11.746 15 13.089 13.657 13.089 12C13.089 10.343 11.746 9 10.089 9ZM11.589 0H8.589V3H11.589V0ZM19.091 2.378L16.511 0.848L14.799 3.735L17.379 5.265L19.091 2.378ZM14.799 20.265L16.511 23.152L19.091 21.622L17.379 18.735L14.799 20.265ZM8.589 24H11.589V21H8.589V24ZM1.087 21.622L3.667 23.152L5.379 20.265L2.799 18.735L1.087 21.622Z" fill="var(--fill-0, white)"/>
</svg>
