<svg preserveAspectRatio="none" width="100%" height="100%" overflow="visible" style="display: block;" viewBox="0 0 24 24" fill="none" xmlns="http://www.w3.org/2000/svg">
<g id="vision 1">
<path id="Vector" d="M4.71 5.265L2.998 2.378L5.578 0.848L7.29 3.735L4.71 5.265ZM22.087 11.903C21.953 12.587 19.038 18.789 12 19C5.672 18.817 2.703 13.978 1.911 12.1C2.049 11.409 4.957 5.214 12 5C18.295 5.187 21.342 10.102 22.087 11.903ZM18.737 11.983C17.878 10.74 15.579 8 12 8C8.496 8 6.168 10.724 5.259 12.021C6.117 13.288 8.379 16 12 16C15.5 16 17.826 13.282 18.737 11.983ZM12 9C10.343 9 9 10.343 9 12C9 13.657 10.343 15 12 15C13.657 15 15 13.657 15 12C15 10.343 13.657 9 12 9ZM13.5 0H10.5V3H13.5V0ZM21.002 2.378L18.422 0.848L16.71 3.735L19.29 5.265L21.002 2.378ZM16.71 20.265L18.422 23.152L21.002 21.622L19.29 18.735L16.71 20.265ZM10.5 24H13.5V21H10.5V24ZM2.998 21.622L5.578 23.152L7.29 20.265L4.71 18.735L2.998 21.622Z" fill="var(--fill-0, white)"/>
</g>
</svg>
